<mxfile host="app.diagrams.net" agent="Mozilla/5.0 (X11; Linux x86_64) AppleWebKit/537.36 (KHTML, like Gecko) Chrome/139.0.0.0 Safari/537.36" version="28.1.0">
  <diagram name="Page-1" id="bd_Dd1Znw6jNRMWO_Omb">
    <mxGraphModel dx="440" dy="292" grid="1" gridSize="10" guides="1" tooltips="1" connect="1" arrows="1" fold="1" page="1" pageScale="1" pageWidth="850" pageHeight="1100" math="0" shadow="0">
      <root>
        <mxCell id="0" />
        <mxCell id="1" parent="0" />
        <mxCell id="FiHQ_ez8EfkBU8jagHso-86" value="" style="rounded=0;whiteSpace=wrap;html=1;dashed=1;" parent="1" vertex="1">
          <mxGeometry x="640" y="270" width="290" height="60" as="geometry" />
        </mxCell>
        <mxCell id="FiHQ_ez8EfkBU8jagHso-84" value="" style="rounded=0;whiteSpace=wrap;html=1;dashed=1;" parent="1" vertex="1">
          <mxGeometry x="640" y="150" width="290" height="60" as="geometry" />
        </mxCell>
        <mxCell id="FiHQ_ez8EfkBU8jagHso-81" value="" style="rounded=0;whiteSpace=wrap;html=1;dashed=1;" parent="1" vertex="1">
          <mxGeometry x="640" y="210" width="290" height="60" as="geometry" />
        </mxCell>
        <mxCell id="FiHQ_ez8EfkBU8jagHso-78" value="" style="rounded=0;whiteSpace=wrap;html=1;dashed=1;" parent="1" vertex="1">
          <mxGeometry x="160" y="270" width="430" height="60" as="geometry" />
        </mxCell>
        <mxCell id="FiHQ_ez8EfkBU8jagHso-77" value="" style="rounded=0;whiteSpace=wrap;html=1;dashed=1;" parent="1" vertex="1">
          <mxGeometry x="160" y="210" width="430" height="60" as="geometry" />
        </mxCell>
        <mxCell id="FiHQ_ez8EfkBU8jagHso-25" style="edgeStyle=orthogonalEdgeStyle;rounded=0;orthogonalLoop=1;jettySize=auto;html=1;exitX=0.5;exitY=0;exitDx=0;exitDy=0;entryX=0.5;entryY=1;entryDx=0;entryDy=0;" parent="1" source="FiHQ_ez8EfkBU8jagHso-1" target="FiHQ_ez8EfkBU8jagHso-19" edge="1">
          <mxGeometry relative="1" as="geometry" />
        </mxCell>
        <mxCell id="FiHQ_ez8EfkBU8jagHso-1" value="" style="rounded=1;whiteSpace=wrap;html=1;" parent="1" vertex="1">
          <mxGeometry x="240" y="280" width="40" height="40" as="geometry" />
        </mxCell>
        <mxCell id="FiHQ_ez8EfkBU8jagHso-2" value="&amp;lt;BOS&amp;gt;" style="text;html=1;align=center;verticalAlign=middle;whiteSpace=wrap;rounded=0;fontFamily=Roboto Mono;fontSource=https%3A%2F%2Ffonts.googleapis.com%2Fcss2%3Ffamily%3DRoboto%2BMono%3Aital%2Cwght%400%2C100..700%3B1%2C100..700%26display%3Dswap;" parent="1" vertex="1">
          <mxGeometry x="230" y="340" width="60" height="30" as="geometry" />
        </mxCell>
        <mxCell id="FiHQ_ez8EfkBU8jagHso-14" style="edgeStyle=orthogonalEdgeStyle;rounded=0;orthogonalLoop=1;jettySize=auto;html=1;exitX=0.5;exitY=0;exitDx=0;exitDy=0;entryX=0.5;entryY=1;entryDx=0;entryDy=0;" parent="1" source="FiHQ_ez8EfkBU8jagHso-3" target="FiHQ_ez8EfkBU8jagHso-8" edge="1">
          <mxGeometry relative="1" as="geometry" />
        </mxCell>
        <mxCell id="FiHQ_ez8EfkBU8jagHso-3" value="Thank" style="text;html=1;align=center;verticalAlign=middle;whiteSpace=wrap;rounded=0;fontFamily=Roboto Mono;fontSource=https%3A%2F%2Ffonts.googleapis.com%2Fcss2%3Ffamily%3DRoboto%2BMono%3Aital%2Cwght%400%2C100..700%3B1%2C100..700%26display%3Dswap;" parent="1" vertex="1">
          <mxGeometry x="290" y="340" width="60" height="30" as="geometry" />
        </mxCell>
        <mxCell id="FiHQ_ez8EfkBU8jagHso-15" style="edgeStyle=orthogonalEdgeStyle;rounded=0;orthogonalLoop=1;jettySize=auto;html=1;exitX=0.5;exitY=0;exitDx=0;exitDy=0;entryX=0.5;entryY=1;entryDx=0;entryDy=0;" parent="1" source="FiHQ_ez8EfkBU8jagHso-4" target="FiHQ_ez8EfkBU8jagHso-9" edge="1">
          <mxGeometry relative="1" as="geometry" />
        </mxCell>
        <mxCell id="FiHQ_ez8EfkBU8jagHso-4" value="you" style="text;html=1;align=center;verticalAlign=middle;whiteSpace=wrap;rounded=0;fontFamily=Roboto Mono;fontSource=https%3A%2F%2Ffonts.googleapis.com%2Fcss2%3Ffamily%3DRoboto%2BMono%3Aital%2Cwght%400%2C100..700%3B1%2C100..700%26display%3Dswap;" parent="1" vertex="1">
          <mxGeometry x="350" y="340" width="60" height="30" as="geometry" />
        </mxCell>
        <mxCell id="FiHQ_ez8EfkBU8jagHso-16" style="edgeStyle=orthogonalEdgeStyle;rounded=0;orthogonalLoop=1;jettySize=auto;html=1;exitX=0.5;exitY=0;exitDx=0;exitDy=0;entryX=0.5;entryY=1;entryDx=0;entryDy=0;" parent="1" source="FiHQ_ez8EfkBU8jagHso-5" target="FiHQ_ez8EfkBU8jagHso-10" edge="1">
          <mxGeometry relative="1" as="geometry" />
        </mxCell>
        <mxCell id="FiHQ_ez8EfkBU8jagHso-5" value="very" style="text;html=1;align=center;verticalAlign=middle;whiteSpace=wrap;rounded=0;fontFamily=Roboto Mono;fontSource=https%3A%2F%2Ffonts.googleapis.com%2Fcss2%3Ffamily%3DRoboto%2BMono%3Aital%2Cwght%400%2C100..700%3B1%2C100..700%26display%3Dswap;" parent="1" vertex="1">
          <mxGeometry x="410" y="340" width="60" height="30" as="geometry" />
        </mxCell>
        <mxCell id="FiHQ_ez8EfkBU8jagHso-17" style="edgeStyle=orthogonalEdgeStyle;rounded=0;orthogonalLoop=1;jettySize=auto;html=1;exitX=0.5;exitY=0;exitDx=0;exitDy=0;entryX=0.5;entryY=1;entryDx=0;entryDy=0;" parent="1" source="FiHQ_ez8EfkBU8jagHso-6" target="FiHQ_ez8EfkBU8jagHso-11" edge="1">
          <mxGeometry relative="1" as="geometry" />
        </mxCell>
        <mxCell id="FiHQ_ez8EfkBU8jagHso-6" value="much" style="text;html=1;align=center;verticalAlign=middle;whiteSpace=wrap;rounded=0;fontFamily=Roboto Mono;fontSource=https%3A%2F%2Ffonts.googleapis.com%2Fcss2%3Ffamily%3DRoboto%2BMono%3Aital%2Cwght%400%2C100..700%3B1%2C100..700%26display%3Dswap;" parent="1" vertex="1">
          <mxGeometry x="470" y="340" width="60" height="30" as="geometry" />
        </mxCell>
        <mxCell id="FiHQ_ez8EfkBU8jagHso-18" style="edgeStyle=orthogonalEdgeStyle;rounded=0;orthogonalLoop=1;jettySize=auto;html=1;exitX=0.5;exitY=0;exitDx=0;exitDy=0;entryX=0.5;entryY=1;entryDx=0;entryDy=0;" parent="1" source="FiHQ_ez8EfkBU8jagHso-7" target="FiHQ_ez8EfkBU8jagHso-12" edge="1">
          <mxGeometry relative="1" as="geometry" />
        </mxCell>
        <mxCell id="FiHQ_ez8EfkBU8jagHso-7" value="&amp;lt;EOS&amp;gt;" style="text;html=1;align=center;verticalAlign=middle;whiteSpace=wrap;rounded=0;fontFamily=Roboto Mono;fontSource=https%3A%2F%2Ffonts.googleapis.com%2Fcss2%3Ffamily%3DRoboto%2BMono%3Aital%2Cwght%400%2C100..700%3B1%2C100..700%26display%3Dswap;" parent="1" vertex="1">
          <mxGeometry x="530" y="340" width="60" height="30" as="geometry" />
        </mxCell>
        <mxCell id="FiHQ_ez8EfkBU8jagHso-27" style="edgeStyle=orthogonalEdgeStyle;rounded=0;orthogonalLoop=1;jettySize=auto;html=1;exitX=0.5;exitY=0;exitDx=0;exitDy=0;entryX=0.5;entryY=1;entryDx=0;entryDy=0;" parent="1" source="FiHQ_ez8EfkBU8jagHso-8" target="FiHQ_ez8EfkBU8jagHso-20" edge="1">
          <mxGeometry relative="1" as="geometry" />
        </mxCell>
        <mxCell id="FiHQ_ez8EfkBU8jagHso-8" value="" style="rounded=1;whiteSpace=wrap;html=1;" parent="1" vertex="1">
          <mxGeometry x="300" y="280" width="40" height="40" as="geometry" />
        </mxCell>
        <mxCell id="FiHQ_ez8EfkBU8jagHso-29" style="edgeStyle=orthogonalEdgeStyle;rounded=0;orthogonalLoop=1;jettySize=auto;html=1;exitX=0.5;exitY=0;exitDx=0;exitDy=0;entryX=0.5;entryY=1;entryDx=0;entryDy=0;" parent="1" source="FiHQ_ez8EfkBU8jagHso-9" target="FiHQ_ez8EfkBU8jagHso-21" edge="1">
          <mxGeometry relative="1" as="geometry" />
        </mxCell>
        <mxCell id="FiHQ_ez8EfkBU8jagHso-9" value="" style="rounded=1;whiteSpace=wrap;html=1;" parent="1" vertex="1">
          <mxGeometry x="360" y="280" width="40" height="40" as="geometry" />
        </mxCell>
        <mxCell id="FiHQ_ez8EfkBU8jagHso-31" style="edgeStyle=orthogonalEdgeStyle;rounded=0;orthogonalLoop=1;jettySize=auto;html=1;exitX=0.5;exitY=0;exitDx=0;exitDy=0;entryX=0.5;entryY=1;entryDx=0;entryDy=0;" parent="1" source="FiHQ_ez8EfkBU8jagHso-10" target="FiHQ_ez8EfkBU8jagHso-22" edge="1">
          <mxGeometry relative="1" as="geometry" />
        </mxCell>
        <mxCell id="FiHQ_ez8EfkBU8jagHso-10" value="" style="rounded=1;whiteSpace=wrap;html=1;" parent="1" vertex="1">
          <mxGeometry x="420" y="280" width="40" height="40" as="geometry" />
        </mxCell>
        <mxCell id="FiHQ_ez8EfkBU8jagHso-33" style="edgeStyle=orthogonalEdgeStyle;rounded=0;orthogonalLoop=1;jettySize=auto;html=1;exitX=0.5;exitY=0;exitDx=0;exitDy=0;entryX=0.5;entryY=1;entryDx=0;entryDy=0;" parent="1" source="FiHQ_ez8EfkBU8jagHso-11" target="FiHQ_ez8EfkBU8jagHso-23" edge="1">
          <mxGeometry relative="1" as="geometry" />
        </mxCell>
        <mxCell id="FiHQ_ez8EfkBU8jagHso-11" value="" style="rounded=1;whiteSpace=wrap;html=1;" parent="1" vertex="1">
          <mxGeometry x="480" y="280" width="40" height="40" as="geometry" />
        </mxCell>
        <mxCell id="FiHQ_ez8EfkBU8jagHso-35" style="edgeStyle=orthogonalEdgeStyle;rounded=0;orthogonalLoop=1;jettySize=auto;html=1;exitX=0.5;exitY=0;exitDx=0;exitDy=0;entryX=0.5;entryY=1;entryDx=0;entryDy=0;" parent="1" source="FiHQ_ez8EfkBU8jagHso-12" target="FiHQ_ez8EfkBU8jagHso-24" edge="1">
          <mxGeometry relative="1" as="geometry" />
        </mxCell>
        <mxCell id="FiHQ_ez8EfkBU8jagHso-12" value="" style="rounded=1;whiteSpace=wrap;html=1;" parent="1" vertex="1">
          <mxGeometry x="540" y="280" width="40" height="40" as="geometry" />
        </mxCell>
        <mxCell id="FiHQ_ez8EfkBU8jagHso-13" value="" style="endArrow=classic;html=1;rounded=0;entryX=0.5;entryY=1;entryDx=0;entryDy=0;exitX=0.5;exitY=0;exitDx=0;exitDy=0;" parent="1" source="FiHQ_ez8EfkBU8jagHso-2" target="FiHQ_ez8EfkBU8jagHso-1" edge="1">
          <mxGeometry width="50" height="50" relative="1" as="geometry">
            <mxPoint x="470" y="360" as="sourcePoint" />
            <mxPoint x="520" y="310" as="targetPoint" />
          </mxGeometry>
        </mxCell>
        <mxCell id="FiHQ_ez8EfkBU8jagHso-26" style="edgeStyle=orthogonalEdgeStyle;rounded=0;orthogonalLoop=1;jettySize=auto;html=1;exitX=1;exitY=0.5;exitDx=0;exitDy=0;entryX=0;entryY=0.5;entryDx=0;entryDy=0;" parent="1" source="FiHQ_ez8EfkBU8jagHso-19" target="FiHQ_ez8EfkBU8jagHso-20" edge="1">
          <mxGeometry relative="1" as="geometry" />
        </mxCell>
        <mxCell id="FiHQ_ez8EfkBU8jagHso-19" value="" style="rounded=1;whiteSpace=wrap;html=1;fillColor=#fad7ac;strokeColor=#b46504;" parent="1" vertex="1">
          <mxGeometry x="240" y="220" width="40" height="40" as="geometry" />
        </mxCell>
        <mxCell id="FiHQ_ez8EfkBU8jagHso-28" style="edgeStyle=orthogonalEdgeStyle;rounded=0;orthogonalLoop=1;jettySize=auto;html=1;exitX=1;exitY=0.5;exitDx=0;exitDy=0;entryX=0;entryY=0.5;entryDx=0;entryDy=0;" parent="1" source="FiHQ_ez8EfkBU8jagHso-20" target="FiHQ_ez8EfkBU8jagHso-21" edge="1">
          <mxGeometry relative="1" as="geometry" />
        </mxCell>
        <mxCell id="FiHQ_ez8EfkBU8jagHso-20" value="" style="rounded=1;whiteSpace=wrap;html=1;fillColor=#fad7ac;strokeColor=#b46504;" parent="1" vertex="1">
          <mxGeometry x="300" y="220" width="40" height="40" as="geometry" />
        </mxCell>
        <mxCell id="FiHQ_ez8EfkBU8jagHso-30" style="edgeStyle=orthogonalEdgeStyle;rounded=0;orthogonalLoop=1;jettySize=auto;html=1;exitX=1;exitY=0.5;exitDx=0;exitDy=0;entryX=0;entryY=0.5;entryDx=0;entryDy=0;" parent="1" source="FiHQ_ez8EfkBU8jagHso-21" target="FiHQ_ez8EfkBU8jagHso-22" edge="1">
          <mxGeometry relative="1" as="geometry" />
        </mxCell>
        <mxCell id="FiHQ_ez8EfkBU8jagHso-21" value="" style="rounded=1;whiteSpace=wrap;html=1;fillColor=#fad7ac;strokeColor=#b46504;" parent="1" vertex="1">
          <mxGeometry x="360" y="220" width="40" height="40" as="geometry" />
        </mxCell>
        <mxCell id="FiHQ_ez8EfkBU8jagHso-32" style="edgeStyle=orthogonalEdgeStyle;rounded=0;orthogonalLoop=1;jettySize=auto;html=1;exitX=1;exitY=0.5;exitDx=0;exitDy=0;entryX=0;entryY=0.5;entryDx=0;entryDy=0;" parent="1" source="FiHQ_ez8EfkBU8jagHso-22" target="FiHQ_ez8EfkBU8jagHso-23" edge="1">
          <mxGeometry relative="1" as="geometry" />
        </mxCell>
        <mxCell id="FiHQ_ez8EfkBU8jagHso-22" value="" style="rounded=1;whiteSpace=wrap;html=1;fillColor=#fad7ac;strokeColor=#b46504;" parent="1" vertex="1">
          <mxGeometry x="420" y="220" width="40" height="40" as="geometry" />
        </mxCell>
        <mxCell id="FiHQ_ez8EfkBU8jagHso-34" style="edgeStyle=orthogonalEdgeStyle;rounded=0;orthogonalLoop=1;jettySize=auto;html=1;exitX=1;exitY=0.5;exitDx=0;exitDy=0;entryX=0;entryY=0.5;entryDx=0;entryDy=0;" parent="1" source="FiHQ_ez8EfkBU8jagHso-23" target="FiHQ_ez8EfkBU8jagHso-24" edge="1">
          <mxGeometry relative="1" as="geometry" />
        </mxCell>
        <mxCell id="FiHQ_ez8EfkBU8jagHso-23" value="" style="rounded=1;whiteSpace=wrap;html=1;fillColor=#fad7ac;strokeColor=#b46504;" parent="1" vertex="1">
          <mxGeometry x="480" y="220" width="40" height="40" as="geometry" />
        </mxCell>
        <mxCell id="FiHQ_ez8EfkBU8jagHso-36" style="edgeStyle=orthogonalEdgeStyle;rounded=0;orthogonalLoop=1;jettySize=auto;html=1;exitX=1;exitY=0.5;exitDx=0;exitDy=0;" parent="1" source="FiHQ_ez8EfkBU8jagHso-24" edge="1">
          <mxGeometry relative="1" as="geometry">
            <mxPoint x="610" y="240" as="targetPoint" />
          </mxGeometry>
        </mxCell>
        <mxCell id="FiHQ_ez8EfkBU8jagHso-24" value="" style="rounded=1;whiteSpace=wrap;html=1;fillColor=#fad7ac;strokeColor=#b46504;" parent="1" vertex="1">
          <mxGeometry x="540" y="220" width="40" height="40" as="geometry" />
        </mxCell>
        <mxCell id="FiHQ_ez8EfkBU8jagHso-37" value="c" style="text;html=1;align=center;verticalAlign=middle;whiteSpace=wrap;rounded=0;fontSize=16;fontFamily=Verdana;" parent="1" vertex="1">
          <mxGeometry x="610" y="223" width="10" height="30" as="geometry" />
        </mxCell>
        <mxCell id="FiHQ_ez8EfkBU8jagHso-38" style="edgeStyle=orthogonalEdgeStyle;rounded=0;orthogonalLoop=1;jettySize=auto;html=1;exitX=1;exitY=0.5;exitDx=0;exitDy=0;" parent="1" edge="1">
          <mxGeometry relative="1" as="geometry">
            <mxPoint x="650" y="239.8" as="targetPoint" />
            <mxPoint x="620" y="239.8" as="sourcePoint" />
          </mxGeometry>
        </mxCell>
        <mxCell id="FiHQ_ez8EfkBU8jagHso-39" style="edgeStyle=orthogonalEdgeStyle;rounded=0;orthogonalLoop=1;jettySize=auto;html=1;exitX=0.5;exitY=0;exitDx=0;exitDy=0;entryX=0.5;entryY=1;entryDx=0;entryDy=0;" parent="1" source="FiHQ_ez8EfkBU8jagHso-40" target="FiHQ_ez8EfkBU8jagHso-43" edge="1">
          <mxGeometry relative="1" as="geometry" />
        </mxCell>
        <mxCell id="FiHQ_ez8EfkBU8jagHso-40" value="" style="rounded=1;whiteSpace=wrap;html=1;" parent="1" vertex="1">
          <mxGeometry x="650" y="280" width="40" height="40" as="geometry" />
        </mxCell>
        <mxCell id="FiHQ_ez8EfkBU8jagHso-41" value="&amp;lt;BOS&amp;gt;" style="text;html=1;align=center;verticalAlign=middle;whiteSpace=wrap;rounded=0;fontFamily=Roboto Mono;fontSource=https%3A%2F%2Ffonts.googleapis.com%2Fcss2%3Ffamily%3DRoboto%2BMono%3Aital%2Cwght%400%2C100..700%3B1%2C100..700%26display%3Dswap;" parent="1" vertex="1">
          <mxGeometry x="640" y="340" width="60" height="30" as="geometry" />
        </mxCell>
        <mxCell id="FiHQ_ez8EfkBU8jagHso-42" value="" style="endArrow=classic;html=1;rounded=0;entryX=0.5;entryY=1;entryDx=0;entryDy=0;exitX=0.5;exitY=0;exitDx=0;exitDy=0;" parent="1" source="FiHQ_ez8EfkBU8jagHso-41" target="FiHQ_ez8EfkBU8jagHso-40" edge="1">
          <mxGeometry width="50" height="50" relative="1" as="geometry">
            <mxPoint x="880" y="360" as="sourcePoint" />
            <mxPoint x="930" y="310" as="targetPoint" />
          </mxGeometry>
        </mxCell>
        <mxCell id="FiHQ_ez8EfkBU8jagHso-46" style="edgeStyle=orthogonalEdgeStyle;rounded=0;orthogonalLoop=1;jettySize=auto;html=1;exitX=0.5;exitY=0;exitDx=0;exitDy=0;entryX=0.5;entryY=1;entryDx=0;entryDy=0;" parent="1" source="FiHQ_ez8EfkBU8jagHso-43" target="FiHQ_ez8EfkBU8jagHso-44" edge="1">
          <mxGeometry relative="1" as="geometry" />
        </mxCell>
        <mxCell id="FiHQ_ez8EfkBU8jagHso-68" style="edgeStyle=orthogonalEdgeStyle;rounded=0;orthogonalLoop=1;jettySize=auto;html=1;exitX=1;exitY=0.5;exitDx=0;exitDy=0;entryX=0;entryY=0.5;entryDx=0;entryDy=0;" parent="1" source="FiHQ_ez8EfkBU8jagHso-43" target="FiHQ_ez8EfkBU8jagHso-54" edge="1">
          <mxGeometry relative="1" as="geometry" />
        </mxCell>
        <mxCell id="FiHQ_ez8EfkBU8jagHso-43" value="" style="rounded=1;whiteSpace=wrap;html=1;fillColor=#b0e3e6;strokeColor=#0e8088;" parent="1" vertex="1">
          <mxGeometry x="650" y="220" width="40" height="40" as="geometry" />
        </mxCell>
        <mxCell id="FiHQ_ez8EfkBU8jagHso-48" style="edgeStyle=orthogonalEdgeStyle;rounded=0;orthogonalLoop=1;jettySize=auto;html=1;exitX=0.5;exitY=0;exitDx=0;exitDy=0;entryX=0.5;entryY=1;entryDx=0;entryDy=0;" parent="1" source="FiHQ_ez8EfkBU8jagHso-44" target="FiHQ_ez8EfkBU8jagHso-47" edge="1">
          <mxGeometry relative="1" as="geometry" />
        </mxCell>
        <mxCell id="FiHQ_ez8EfkBU8jagHso-44" value="" style="rounded=1;whiteSpace=wrap;html=1;" parent="1" vertex="1">
          <mxGeometry x="650" y="160" width="40" height="40" as="geometry" />
        </mxCell>
        <mxCell id="FiHQ_ez8EfkBU8jagHso-47" value="Muito" style="text;html=1;align=center;verticalAlign=middle;whiteSpace=wrap;rounded=0;fontFamily=Roboto Mono;fontSource=https%3A%2F%2Ffonts.googleapis.com%2Fcss2%3Ffamily%3DRoboto%2BMono%3Aital%2Cwght%400%2C100..700%3B1%2C100..700%26display%3Dswap;" parent="1" vertex="1">
          <mxGeometry x="650" y="110" width="40" height="30" as="geometry" />
        </mxCell>
        <mxCell id="FiHQ_ez8EfkBU8jagHso-49" style="edgeStyle=orthogonalEdgeStyle;rounded=0;orthogonalLoop=1;jettySize=auto;html=1;exitX=0.5;exitY=0;exitDx=0;exitDy=0;entryX=0.5;entryY=1;entryDx=0;entryDy=0;" parent="1" source="FiHQ_ez8EfkBU8jagHso-50" target="FiHQ_ez8EfkBU8jagHso-54" edge="1">
          <mxGeometry relative="1" as="geometry" />
        </mxCell>
        <mxCell id="FiHQ_ez8EfkBU8jagHso-50" value="" style="rounded=1;whiteSpace=wrap;html=1;" parent="1" vertex="1">
          <mxGeometry x="730" y="280" width="40" height="40" as="geometry" />
        </mxCell>
        <mxCell id="FiHQ_ez8EfkBU8jagHso-51" value="Muito" style="text;html=1;align=center;verticalAlign=middle;whiteSpace=wrap;rounded=0;fontFamily=Roboto Mono;fontSource=https%3A%2F%2Ffonts.googleapis.com%2Fcss2%3Ffamily%3DRoboto%2BMono%3Aital%2Cwght%400%2C100..700%3B1%2C100..700%26display%3Dswap;fontColor=#666666;" parent="1" vertex="1">
          <mxGeometry x="730" y="340" width="40" height="30" as="geometry" />
        </mxCell>
        <mxCell id="FiHQ_ez8EfkBU8jagHso-52" value="" style="endArrow=classic;html=1;rounded=0;entryX=0.5;entryY=1;entryDx=0;entryDy=0;exitX=0.5;exitY=0;exitDx=0;exitDy=0;" parent="1" source="FiHQ_ez8EfkBU8jagHso-51" target="FiHQ_ez8EfkBU8jagHso-50" edge="1">
          <mxGeometry width="50" height="50" relative="1" as="geometry">
            <mxPoint x="960" y="360" as="sourcePoint" />
            <mxPoint x="1010" y="310" as="targetPoint" />
          </mxGeometry>
        </mxCell>
        <mxCell id="FiHQ_ez8EfkBU8jagHso-53" style="edgeStyle=orthogonalEdgeStyle;rounded=0;orthogonalLoop=1;jettySize=auto;html=1;exitX=0.5;exitY=0;exitDx=0;exitDy=0;entryX=0.5;entryY=1;entryDx=0;entryDy=0;" parent="1" source="FiHQ_ez8EfkBU8jagHso-54" target="FiHQ_ez8EfkBU8jagHso-56" edge="1">
          <mxGeometry relative="1" as="geometry" />
        </mxCell>
        <mxCell id="FiHQ_ez8EfkBU8jagHso-69" style="edgeStyle=orthogonalEdgeStyle;rounded=0;orthogonalLoop=1;jettySize=auto;html=1;exitX=1;exitY=0.5;exitDx=0;exitDy=0;entryX=0;entryY=0.5;entryDx=0;entryDy=0;" parent="1" source="FiHQ_ez8EfkBU8jagHso-54" target="FiHQ_ez8EfkBU8jagHso-62" edge="1">
          <mxGeometry relative="1" as="geometry" />
        </mxCell>
        <mxCell id="FiHQ_ez8EfkBU8jagHso-54" value="" style="rounded=1;whiteSpace=wrap;html=1;fillColor=#b0e3e6;strokeColor=#0e8088;" parent="1" vertex="1">
          <mxGeometry x="730" y="220" width="40" height="40" as="geometry" />
        </mxCell>
        <mxCell id="FiHQ_ez8EfkBU8jagHso-55" style="edgeStyle=orthogonalEdgeStyle;rounded=0;orthogonalLoop=1;jettySize=auto;html=1;exitX=0.5;exitY=0;exitDx=0;exitDy=0;entryX=0.5;entryY=1;entryDx=0;entryDy=0;" parent="1" source="FiHQ_ez8EfkBU8jagHso-56" edge="1">
          <mxGeometry relative="1" as="geometry">
            <mxPoint x="750" y="140" as="targetPoint" />
          </mxGeometry>
        </mxCell>
        <mxCell id="FiHQ_ez8EfkBU8jagHso-56" value="" style="rounded=1;whiteSpace=wrap;html=1;" parent="1" vertex="1">
          <mxGeometry x="730" y="160" width="40" height="40" as="geometry" />
        </mxCell>
        <mxCell id="FiHQ_ez8EfkBU8jagHso-57" style="edgeStyle=orthogonalEdgeStyle;rounded=0;orthogonalLoop=1;jettySize=auto;html=1;exitX=0.5;exitY=0;exitDx=0;exitDy=0;entryX=0.5;entryY=1;entryDx=0;entryDy=0;" parent="1" source="FiHQ_ez8EfkBU8jagHso-58" target="FiHQ_ez8EfkBU8jagHso-62" edge="1">
          <mxGeometry relative="1" as="geometry" />
        </mxCell>
        <mxCell id="FiHQ_ez8EfkBU8jagHso-58" value="" style="rounded=1;whiteSpace=wrap;html=1;" parent="1" vertex="1">
          <mxGeometry x="810" y="280" width="40" height="40" as="geometry" />
        </mxCell>
        <mxCell id="FiHQ_ez8EfkBU8jagHso-59" value="obrigado" style="text;html=1;align=center;verticalAlign=middle;whiteSpace=wrap;rounded=0;fontFamily=Roboto Mono;fontSource=https%3A%2F%2Ffonts.googleapis.com%2Fcss2%3Ffamily%3DRoboto%2BMono%3Aital%2Cwght%400%2C100..700%3B1%2C100..700%26display%3Dswap;fontColor=#666666;" parent="1" vertex="1">
          <mxGeometry x="800" y="340" width="60" height="30" as="geometry" />
        </mxCell>
        <mxCell id="FiHQ_ez8EfkBU8jagHso-60" value="" style="endArrow=classic;html=1;rounded=0;entryX=0.5;entryY=1;entryDx=0;entryDy=0;exitX=0.5;exitY=0;exitDx=0;exitDy=0;" parent="1" source="FiHQ_ez8EfkBU8jagHso-59" target="FiHQ_ez8EfkBU8jagHso-58" edge="1">
          <mxGeometry width="50" height="50" relative="1" as="geometry">
            <mxPoint x="1040" y="360" as="sourcePoint" />
            <mxPoint x="1090" y="310" as="targetPoint" />
          </mxGeometry>
        </mxCell>
        <mxCell id="FiHQ_ez8EfkBU8jagHso-61" style="edgeStyle=orthogonalEdgeStyle;rounded=0;orthogonalLoop=1;jettySize=auto;html=1;exitX=0.5;exitY=0;exitDx=0;exitDy=0;entryX=0.5;entryY=1;entryDx=0;entryDy=0;" parent="1" source="FiHQ_ez8EfkBU8jagHso-62" target="FiHQ_ez8EfkBU8jagHso-64" edge="1">
          <mxGeometry relative="1" as="geometry" />
        </mxCell>
        <mxCell id="FiHQ_ez8EfkBU8jagHso-62" value="" style="rounded=1;whiteSpace=wrap;html=1;fillColor=#b0e3e6;strokeColor=#0e8088;" parent="1" vertex="1">
          <mxGeometry x="810" y="220" width="40" height="40" as="geometry" />
        </mxCell>
        <mxCell id="FiHQ_ez8EfkBU8jagHso-63" style="edgeStyle=orthogonalEdgeStyle;rounded=0;orthogonalLoop=1;jettySize=auto;html=1;exitX=0.5;exitY=0;exitDx=0;exitDy=0;entryX=0.5;entryY=1;entryDx=0;entryDy=0;" parent="1" source="FiHQ_ez8EfkBU8jagHso-64" edge="1">
          <mxGeometry relative="1" as="geometry">
            <mxPoint x="830" y="140" as="targetPoint" />
          </mxGeometry>
        </mxCell>
        <mxCell id="FiHQ_ez8EfkBU8jagHso-64" value="" style="rounded=1;whiteSpace=wrap;html=1;" parent="1" vertex="1">
          <mxGeometry x="810" y="160" width="40" height="40" as="geometry" />
        </mxCell>
        <mxCell id="FiHQ_ez8EfkBU8jagHso-65" value="&amp;lt;EOS&amp;gt;" style="text;html=1;align=center;verticalAlign=middle;whiteSpace=wrap;rounded=0;fontFamily=Roboto Mono;fontSource=https%3A%2F%2Ffonts.googleapis.com%2Fcss2%3Ffamily%3DRoboto%2BMono%3Aital%2Cwght%400%2C100..700%3B1%2C100..700%26display%3Dswap;" parent="1" vertex="1">
          <mxGeometry x="810" y="110" width="40" height="30" as="geometry" />
        </mxCell>
        <mxCell id="FiHQ_ez8EfkBU8jagHso-66" value="obrigado" style="text;html=1;align=center;verticalAlign=middle;whiteSpace=wrap;rounded=0;fontFamily=Roboto Mono;fontSource=https%3A%2F%2Ffonts.googleapis.com%2Fcss2%3Ffamily%3DRoboto%2BMono%3Aital%2Cwght%400%2C100..700%3B1%2C100..700%26display%3Dswap;" parent="1" vertex="1">
          <mxGeometry x="720" y="110" width="60" height="30" as="geometry" />
        </mxCell>
        <mxCell id="FiHQ_ez8EfkBU8jagHso-79" value="Embedding" style="text;html=1;align=right;verticalAlign=middle;whiteSpace=wrap;rounded=0;fontFamily=Roboto;fontSource=https%3A%2F%2Ffonts.googleapis.com%2Fcss2%3Ffamily%3DRoboto%3Aital%2Cwght%400%2C100..900%3B1%2C100..900%26display%3Dswap;" parent="1" vertex="1">
          <mxGeometry x="170" y="285" width="60" height="30" as="geometry" />
        </mxCell>
        <mxCell id="FiHQ_ez8EfkBU8jagHso-80" value="Encoder" style="text;html=1;align=right;verticalAlign=middle;whiteSpace=wrap;rounded=0;fontFamily=Roboto;fontSource=https%3A%2F%2Ffonts.googleapis.com%2Fcss2%3Ffamily%3DRoboto%3Aital%2Cwght%400%2C100..900%3B1%2C100..900%26display%3Dswap;" parent="1" vertex="1">
          <mxGeometry x="170" y="225" width="60" height="30" as="geometry" />
        </mxCell>
        <mxCell id="FiHQ_ez8EfkBU8jagHso-82" value="&lt;div align=&quot;left&quot;&gt;Decoder&lt;/div&gt;" style="text;html=1;align=left;verticalAlign=middle;whiteSpace=wrap;rounded=0;fontFamily=Roboto;fontSource=https%3A%2F%2Ffonts.googleapis.com%2Fcss2%3Ffamily%3DRoboto%3Aital%2Cwght%400%2C100..900%3B1%2C100..900%26display%3Dswap;" parent="1" vertex="1">
          <mxGeometry x="860" y="223" width="60" height="30" as="geometry" />
        </mxCell>
        <mxCell id="FiHQ_ez8EfkBU8jagHso-83" value="Softmax" style="text;html=1;align=left;verticalAlign=middle;whiteSpace=wrap;rounded=0;fontFamily=Roboto;fontSource=https%3A%2F%2Ffonts.googleapis.com%2Fcss2%3Ffamily%3DRoboto%3Aital%2Cwght%400%2C100..900%3B1%2C100..900%26display%3Dswap;" parent="1" vertex="1">
          <mxGeometry x="860" y="165" width="60" height="30" as="geometry" />
        </mxCell>
        <mxCell id="FiHQ_ez8EfkBU8jagHso-85" value="Embedding" style="text;html=1;align=left;verticalAlign=middle;whiteSpace=wrap;rounded=0;fontFamily=Roboto;fontSource=https%3A%2F%2Ffonts.googleapis.com%2Fcss2%3Ffamily%3DRoboto%3Aital%2Cwght%400%2C100..900%3B1%2C100..900%26display%3Dswap;" parent="1" vertex="1">
          <mxGeometry x="860" y="285" width="60" height="30" as="geometry" />
        </mxCell>
      </root>
    </mxGraphModel>
  </diagram>
</mxfile>
